<svg xmlns="http://www.w3.org/2000/svg" viewBox="0 0 595 842" width="595" height="842">
  <!-- Built from _template.svg / STYLE-GUIDE.md. Stats synced from D&D Beyond (id 155665213). -->
  <style>
    .title       { font: bold 17px Arial, sans-serif; fill: #ffffff; }
    .subtitle    { font: bold 10px Arial, sans-serif; fill: #ececf5; }
    .box-title   { font: bold 10px Arial, sans-serif; fill: #ffffff; }
    .node        { font: bold 12px Arial, sans-serif; fill: #ffffff; }
    .decision    { font: bold 10px Arial, sans-serif; fill: #111111; }
    .decision-sm { font: bold 9px Arial, sans-serif;  fill: #111111; }
    .act-title   { font: bold 10px Arial, sans-serif; fill: #ffffff; }
    .act-detail  { font: 9px Arial, sans-serif;       fill: #ffffff; }
    .act-note    { font: italic 8px Arial, sans-serif; fill: #f0f0f0; }
    .stat-label  { font: bold 9px Arial, sans-serif;  fill: #111111; }
    .stat-value  { font: 9px Arial, sans-serif;       fill: #1a1a2e; }
    .key-sub     { font: italic 8px Arial, sans-serif; fill: #555555; }
    .chip        { font: bold 10px Arial, sans-serif; }
    .bang        { font: bold 6px Arial, sans-serif;  fill: #5a1a00; }
    .foot        { font: bold 9px Arial, sans-serif;  fill: #1a1a2e; }
  </style>

  <rect width="595" height="842" fill="#ffffff"/>

  <!-- HEADER -->
  <rect x="15" y="10" width="565" height="46" rx="6" fill="#1a1a2e"/>
  <text x="297" y="32" text-anchor="middle" class="title">CLOVER DARKBLOOM - BATTLE STRATEGY</text>
  <text x="297" y="48" text-anchor="middle" class="subtitle">Lv2 Wood-Elf Druid  |  HP 13  |  AC 15  |  DC 13  |  Atk +5  |  3 x 1st slots  |  Wild Shape 2/day  |  Speed 35</text>

  <!-- REFERENCE ROW -->
  <rect x="15" y="62" width="180" height="92" rx="4" fill="#ffffff" stroke="#555" stroke-width="1.5"/>
  <rect x="15" y="62" width="180" height="18" rx="4" fill="#495057"/>
  <text x="105" y="75" text-anchor="middle" class="box-title">QUICK REFERENCE</text>
  <text x="22" y="93"  class="stat-label">Frostbite:</text><text x="92" y="93"  class="stat-value">CON 13, 1d6, 60ft</text>
  <text x="22" y="106" class="stat-label">Slots:</text><text x="92" y="106" class="stat-value">3 x 1st level</text>
  <text x="22" y="119" class="stat-label">Wild Shape:</text><text x="92" y="119" class="stat-value">2 / day</text>
  <text x="22" y="132" class="stat-label">Init:</text><text x="92" y="132" class="stat-value">+2 | Darkvision 60</text>
  <text x="22" y="145" class="stat-label">Q-staff:</text><text x="92" y="145" class="stat-value">+3, 1d6+1 (Topple)</text>

  <!-- SURVIVAL PRIORITY (red, !) -->
  <rect x="205" y="62" width="180" height="92" rx="4" fill="#ffffff" stroke="#9e1b27" stroke-width="1.5"/>
  <rect x="205" y="62" width="180" height="18" rx="4" fill="#b32330"/>
  <polygon points="218,67 213,76 223,76" fill="#ffd633" stroke="#7a1019" stroke-width="0.8"/>
  <text x="218" y="74.5" text-anchor="middle" class="bang">!</text>
  <text x="300" y="75" text-anchor="middle" class="box-title">SURVIVAL PRIORITY</text>
  <text x="212" y="93"  class="stat-value">- AC 15, or 20 with Shield!</text>
  <text x="212" y="106" class="stat-value">- Stay 30-60ft from enemies</text>
  <text x="212" y="119" class="stat-value">- Healing Word is a BONUS action</text>
  <text x="212" y="132" class="stat-value">- Shield (reaction) when hit</text>
  <text x="212" y="145" class="stat-value">- Find Familiar (ritual) = Help</text>

  <!-- COMBAT SPELLS (blue) -->
  <rect x="395" y="62" width="185" height="92" rx="4" fill="#ffffff" stroke="#0a4a8a" stroke-width="1.5"/>
  <rect x="395" y="62" width="185" height="18" rx="4" fill="#1565c0"/>
  <text x="487" y="75" text-anchor="middle" class="box-title">COMBAT SPELLS (1st)</text>
  <text x="402" y="93"  class="stat-label">Entangle</text><text x="458" y="93"  class="stat-value">STR 13, restrained, 90ft</text>
  <text x="402" y="106" class="stat-label">Faerie Fire</text><text x="465" y="106" class="stat-value">DEX 13, adv to hit, 60ft</text>
  <text x="402" y="119" class="stat-label">Healing W.</text><text x="465" y="119" class="stat-value">BA, 2d4+3, 60ft</text>
  <text x="402" y="132" class="stat-label">Shield</text><text x="458" y="132" class="stat-value">reaction, +5 AC</text>
  <text x="402" y="145" class="stat-label">Fog Cloud</text><text x="458" y="145" class="stat-value">20ft sphere, blinds</text>

  <!-- SYMBOL KEY -->
  <rect x="400" y="160" width="180" height="104" rx="4" fill="#ffffff" stroke="#555" stroke-width="1.5"/>
  <rect x="400" y="160" width="180" height="18" rx="4" fill="#495057"/>
  <text x="490" y="173" text-anchor="middle" class="box-title">SYMBOL KEY</text>
  <polygon points="412,186 406,196 418,196" fill="#ffd633" stroke="#7a1019" stroke-width="0.8"/>
  <text x="412" y="195" text-anchor="middle" class="bang">!</text>
  <text x="428" y="194" class="stat-label">Survival / support</text>
  <text x="428" y="204" class="key-sub">reposition, heal an ally</text>
  <polygon points="412,212 419,219 412,226 405,219" fill="#ffffff" stroke="#333333" stroke-width="1.2"/>
  <text x="428" y="220" class="stat-label">Control / utility</text>
  <text x="428" y="230" class="key-sub">Entangle, Faerie Fire</text>
  <circle cx="412" cy="244" r="6" fill="#ffffff" stroke="#333333" stroke-width="1.2"/>
  <text x="428" y="246" class="stat-label">Attack / damage</text>
  <text x="428" y="256" class="key-sub">Frostbite</text>

  <!-- ===== FLOWCHART ===== -->
  <ellipse cx="297" cy="176" rx="56" ry="17" fill="#2d6a4f" stroke="#13402e" stroke-width="1.5"/>
  <text x="297" y="181" text-anchor="middle" class="node">YOUR TURN</text>
  <line x1="297" y1="193" x2="297" y2="197" stroke="#333" stroke-width="2.5"/>
  <polygon points="297,200 293,194 301,194" fill="#333"/>

  <!-- inline Healing Word banner -->
  <rect x="206" y="201" width="182" height="30" rx="5" fill="#1e7e34" stroke="#0f3d19" stroke-width="1.5"/>
  <polygon points="220,209 215,218 225,218" fill="#ffd633" stroke="#0f3d19" stroke-width="0.8"/>
  <text x="220" y="217" text-anchor="middle" class="bang">!</text>
  <text x="303" y="214" text-anchor="middle" class="act-title">BONUS: HEALING WORD</text>
  <text x="297" y="226" text-anchor="middle" class="act-detail">heal an ally 2d4+3 (60ft) and still act</text>
  <line x1="297" y1="231" x2="297" y2="237" stroke="#333" stroke-width="2.5"/>
  <polygon points="297,242 293,236 301,236" fill="#333"/>

  <!-- D1: foe within 30ft? cy268 -->
  <polygon points="297,242 365,268 297,294 229,268" fill="#f8d7da" stroke="#9e1b27" stroke-width="2"/>
  <text x="297" y="264" text-anchor="middle" class="decision">Foe within</text>
  <text x="297" y="277" text-anchor="middle" class="decision">30 ft of you?</text>
  <!-- REPOSITION box (left) -->
  <rect x="40" y="240" width="142" height="56" rx="4" fill="#b32330" stroke="#6e0f17" stroke-width="1.5"/>
  <polygon points="54,251 49,260 59,260" fill="#ffd633" stroke="#6e0f17" stroke-width="0.8"/>
  <text x="54" y="259" text-anchor="middle" class="bang">!</text>
  <text x="114" y="256" text-anchor="middle" class="act-title">REPOSITION</text>
  <text x="111" y="270" text-anchor="middle" class="act-detail">Move 35ft to safety</text>
  <text x="111" y="282" text-anchor="middle" class="act-detail">(Disengage if needed), Frostbite</text>
  <text x="111" y="292" text-anchor="middle" class="act-note">Shield reaction if hit (AC 20)</text>
  <!-- D1 YES -> REPOSITION (chip above) -->
  <line x1="229" y1="268" x2="186" y2="268" stroke="#9e1b27" stroke-width="2.5"/>
  <polygon points="182,268 190,264 190,272" fill="#9e1b27"/>
  <rect x="192" y="252" width="26" height="13" rx="3" fill="#ffffff" stroke="#9e1b27" stroke-width="0.8"/>
  <text x="205" y="261.5" text-anchor="middle" class="chip" fill="#9e1b27">YES</text>
  <!-- D1 NO down (chip right) -->
  <line x1="297" y1="294" x2="297" y2="316" stroke="#1e7e34" stroke-width="2.5"/>
  <polygon points="297,322 292,316 302,316" fill="#1e7e34"/>
  <rect x="303" y="296" width="26" height="13" rx="3" fill="#ffffff" stroke="#1e7e34" stroke-width="0.8"/>
  <text x="316" y="305.5" text-anchor="middle" class="chip" fill="#1e7e34">NO</text>

  <!-- D2: enemies grouped? cy350 -->
  <polygon points="297,324 365,350 297,376 229,350" fill="#fff3cd" stroke="#856404" stroke-width="2"/>
  <text x="297" y="346" text-anchor="middle" class="decision">Several foes</text>
  <text x="297" y="359" text-anchor="middle" class="decision">grouped up?</text>
  <!-- ENTANGLE box (left) -->
  <rect x="40" y="322" width="142" height="56" rx="4" fill="#0069d9" stroke="#003e80" stroke-width="1.5"/>
  <polygon points="54,333 60,339 54,345 48,339" fill="#ffffff" stroke="#003e80" stroke-width="0.8"/>
  <text x="116" y="338" text-anchor="middle" class="act-title">ENTANGLE</text>
  <text x="111" y="353" text-anchor="middle" class="act-detail">STR 13, restrained</text>
  <text x="111" y="365" text-anchor="middle" class="act-detail">20ft square, 90ft range</text>
  <text x="111" y="374" text-anchor="middle" class="act-note">Concentration - lock them down</text>
  <!-- D2 YES -> ENTANGLE (chip above) -->
  <line x1="229" y1="350" x2="186" y2="350" stroke="#0069d9" stroke-width="2.5"/>
  <polygon points="182,350 190,346 190,354" fill="#0069d9"/>
  <rect x="192" y="334" width="26" height="13" rx="3" fill="#ffffff" stroke="#003e80" stroke-width="0.8"/>
  <text x="205" y="343.5" text-anchor="middle" class="chip" fill="#003e80">YES</text>
  <!-- D2 NO down (chip right) -->
  <line x1="297" y1="376" x2="297" y2="398" stroke="#1e7e34" stroke-width="2.5"/>
  <polygon points="297,404 292,398 302,398" fill="#1e7e34"/>
  <rect x="303" y="378" width="26" height="13" rx="3" fill="#ffffff" stroke="#1e7e34" stroke-width="0.8"/>
  <text x="316" y="387.5" text-anchor="middle" class="chip" fill="#1e7e34">NO</text>

  <!-- D3: allies want advantage? cy432 -->
  <polygon points="297,406 365,432 297,458 229,432" fill="#d4edda" stroke="#1e7e34" stroke-width="2"/>
  <text x="297" y="428" text-anchor="middle" class="decision">Allies want adv</text>
  <text x="297" y="441" text-anchor="middle" class="decision">on a tough foe?</text>
  <!-- FAERIE FIRE box (left) -->
  <rect x="40" y="404" width="142" height="56" rx="4" fill="#6f42c1" stroke="#3c2363" stroke-width="1.5"/>
  <polygon points="54,415 60,421 54,427 48,421" fill="#ffffff" stroke="#3c2363" stroke-width="0.8"/>
  <text x="116" y="420" text-anchor="middle" class="act-title">FAERIE FIRE</text>
  <text x="111" y="435" text-anchor="middle" class="act-detail">DEX 13 or outlined</text>
  <text x="111" y="447" text-anchor="middle" class="act-detail">Allies get ADV to hit it, 60ft</text>
  <text x="111" y="457" text-anchor="middle" class="act-note">Concentration - great vs invisible</text>
  <!-- D3 YES -> FAERIE FIRE (chip above) -->
  <line x1="229" y1="432" x2="186" y2="432" stroke="#6f42c1" stroke-width="2.5"/>
  <polygon points="182,432 190,428 190,436" fill="#6f42c1"/>
  <rect x="192" y="416" width="26" height="13" rx="3" fill="#ffffff" stroke="#5a3a91" stroke-width="0.8"/>
  <text x="205" y="425.5" text-anchor="middle" class="chip" fill="#5a3a91">YES</text>
  <!-- D3 NO down -> FROSTBITE (chip right) -->
  <line x1="297" y1="458" x2="297" y2="490" stroke="#138496" stroke-width="2.5"/>
  <polygon points="297,496 292,490 302,490" fill="#138496"/>
  <rect x="303" y="466" width="26" height="13" rx="3" fill="#ffffff" stroke="#0a4a52" stroke-width="0.8"/>
  <text x="316" y="475.5" text-anchor="middle" class="chip" fill="#0a4a52">NO</text>
  <!-- FROSTBITE box (terminal, center) -->
  <rect x="237" y="496" width="120" height="52" rx="4" fill="#138496" stroke="#0a4a52" stroke-width="1.5"/>
  <circle cx="252" cy="510" r="4.5" fill="#ffffff" stroke="#0a4a52" stroke-width="0.8"/>
  <text x="302" y="513" text-anchor="middle" class="act-title">FROSTBITE</text>
  <text x="297" y="528" text-anchor="middle" class="act-detail">Cantrip, CON 13, 1d6 cold</text>
  <text x="297" y="540" text-anchor="middle" class="act-detail">+ disadv on its next attack</text>

  <!-- ===== BOTTOM UTILITY ROW ===== -->
  <rect x="15" y="700" width="135" height="100" rx="4" fill="#343a40" stroke="#15181c" stroke-width="1.5"/>
  <text x="82" y="716" text-anchor="middle" class="box-title">REACTION</text>
  <line x1="25" y1="722" x2="140" y2="722" stroke="#666" stroke-width="1.2"/>
  <text x="22" y="736" class="act-title">SHIELD (1st-level)</text>
  <text x="22" y="750" class="act-detail">+5 AC until next turn</text>
  <text x="22" y="762" class="act-detail">when hit -> AC 20.</text>
  <text x="22" y="778" class="act-detail">Or Opportunity Attack:</text>
  <text x="22" y="790" class="act-note">Quarterstaff +3, 1d6+1</text>

  <rect x="160" y="700" width="135" height="100" rx="4" fill="#1e7e34" stroke="#0f3d19" stroke-width="1.5"/>
  <text x="227" y="716" text-anchor="middle" class="box-title">BONUS ACTION</text>
  <line x1="170" y1="722" x2="285" y2="722" stroke="#7bbf90" stroke-width="1.2"/>
  <text x="227" y="738" text-anchor="middle" class="act-title">HEALING WORD</text>
  <text x="227" y="752" text-anchor="middle" class="act-detail">2d4+3, 60ft (verbal)</text>
  <text x="227" y="764" text-anchor="middle" class="act-detail">Heal AND act same turn.</text>
  <text x="227" y="780" text-anchor="middle" class="act-title">WILD SHAPE</text>
  <text x="227" y="792" text-anchor="middle" class="act-detail">2/day - scout / soak hits</text>

  <rect x="305" y="700" width="135" height="100" rx="4" fill="#138496" stroke="#0a4a52" stroke-width="1.5"/>
  <text x="372" y="716" text-anchor="middle" class="box-title">MOVEMENT</text>
  <line x1="315" y1="722" x2="430" y2="722" stroke="#0d6473" stroke-width="1.2"/>
  <text x="312" y="736" class="act-detail">Speed: 35 ft</text>
  <text x="312" y="750" class="act-detail">Stay 30-60ft from foes</text>
  <text x="312" y="762" class="act-detail">Half cover: +2 AC</text>
  <text x="312" y="776" class="act-detail">Keep concentration safe</text>
  <text x="312" y="788" class="act-detail">(stay out of melee).</text>

  <rect x="450" y="700" width="130" height="100" rx="4" fill="#ffffff" stroke="#117a5f" stroke-width="1.5"/>
  <rect x="450" y="700" width="130" height="18" rx="4" fill="#20a07a"/>
  <text x="515" y="713" text-anchor="middle" class="box-title">UTILITY</text>
  <text x="455" y="731" class="stat-value">- Guidance (+1d4)</text>
  <text x="455" y="744" class="stat-value">- Druidcraft, Message</text>
  <text x="455" y="757" class="stat-value">- Mage Hand, Minor Illus.</text>
  <text x="455" y="770" class="stat-value">- Speak w/ Animals (rit.)</text>
  <text x="455" y="783" class="stat-value">- Find Familiar (rit.)</text>
  <text x="455" y="795" class="key-sub">Darkvision 60 | Immune sleep</text>

  <!-- FOOTER -->
  <rect x="15" y="806" width="565" height="30" rx="4" fill="#fff3cd" stroke="#856404" stroke-width="1.5"/>
  <polygon points="27,812 21,822 33,822" fill="#d9690a" stroke="#5a4500" stroke-width="0.8"/>
  <text x="27" y="820.5" text-anchor="middle" class="bang" fill="#ffffff">!</text>
  <text x="302" y="820" text-anchor="middle" class="foot" fill="#5a4500">Shield reaction = AC 20. Frostbite gives disadvantage on its next attack. Healing Word is a bonus action - heal AND act.</text>
  <text x="302" y="832" text-anchor="middle" class="stat-value" fill="#5a4500" style="font-size:8px">Synced: 2026-06-01  -  Lv2  -  regenerate from D&amp;D Beyond after level-ups</text>
</svg>
