<svg xmlns="http://www.w3.org/2000/svg" viewBox="0 0 595 842" width="595" height="842">
  <!-- Built from _template.svg / STYLE-GUIDE.md. Stats synced from D&D Beyond (id 162797600). Now Lv2. -->
  <style>
    .title       { font: bold 17px Arial, sans-serif; fill: #ffffff; }
    .subtitle    { font: bold 10px Arial, sans-serif; fill: #ececf5; }
    .box-title   { font: bold 10px Arial, sans-serif; fill: #ffffff; }
    .node        { font: bold 12px Arial, sans-serif; fill: #ffffff; }
    .decision    { font: bold 10px Arial, sans-serif; fill: #111111; }
    .decision-sm { font: bold 9px Arial, sans-serif;  fill: #111111; }
    .act-title   { font: bold 10px Arial, sans-serif; fill: #ffffff; }
    .act-detail  { font: 9px Arial, sans-serif;       fill: #ffffff; }
    .act-note    { font: italic 8px Arial, sans-serif; fill: #f0f0f0; }
    .stat-label  { font: bold 9px Arial, sans-serif;  fill: #111111; }
    .stat-value  { font: 9px Arial, sans-serif;       fill: #1a1a2e; }
    .key-sub     { font: italic 8px Arial, sans-serif; fill: #555555; }
    .chip        { font: bold 10px Arial, sans-serif; }
    .bang        { font: bold 6px Arial, sans-serif;  fill: #5a1a00; }
    .foot        { font: bold 9px Arial, sans-serif;  fill: #1a1a2e; }
  </style>

  <rect width="595" height="842" fill="#ffffff"/>

  <!-- HEADER -->
  <rect x="15" y="10" width="565" height="46" rx="6" fill="#1a1a2e"/>
  <text x="297" y="32" text-anchor="middle" class="title">LYSANDER - BATTLE STRATEGY</text>
  <text x="297" y="48" text-anchor="middle" class="subtitle">Lv2 Half-Elf Bard  |  HP 13  |  AC 10  |  Spell DC 13  |  Atk +5  |  3 x 1st slots  |  Bardic Insp 3/LR (d6)</text>

  <!-- REFERENCE ROW -->
  <rect x="15" y="62" width="180" height="92" rx="4" fill="#ffffff" stroke="#555" stroke-width="1.5"/>
  <rect x="15" y="62" width="180" height="18" rx="4" fill="#495057"/>
  <text x="105" y="75" text-anchor="middle" class="box-title">QUICK REFERENCE</text>
  <text x="22" y="93"  class="stat-label">V. Mockery:</text><text x="92" y="93"  class="stat-value">WIS 13, 1d6, 60ft</text>
  <text x="22" y="106" class="stat-label">Slots:</text><text x="92" y="106" class="stat-value">3 x 1st level</text>
  <text x="22" y="119" class="stat-label">Bardic:</text><text x="92" y="119" class="stat-value">3/LR, d6, 60ft</text>
  <text x="22" y="132" class="stat-label">Init:</text><text x="92" y="132" class="stat-value">+0 | Darkvision 60</text>
  <text x="22" y="145" class="stat-label">Dagger:</text><text x="92" y="145" class="stat-value">+2, 1d4 (throw 20/60)</text>

  <!-- SURVIVAL PRIORITY (red, !) -->
  <rect x="205" y="62" width="180" height="92" rx="4" fill="#ffffff" stroke="#9e1b27" stroke-width="1.5"/>
  <rect x="205" y="62" width="180" height="18" rx="4" fill="#b32330"/>
  <polygon points="218,67 213,76 223,76" fill="#ffd633" stroke="#7a1019" stroke-width="0.8"/>
  <text x="218" y="74.5" text-anchor="middle" class="bang">!</text>
  <text x="300" y="75" text-anchor="middle" class="box-title">SURVIVAL PRIORITY</text>
  <text x="212" y="93"  class="stat-value">- AC 10, HP 13: stay FAR back</text>
  <text x="212" y="106" class="stat-value">- Keep 60ft+ from enemies</text>
  <text x="212" y="119" class="stat-value">- Never melee - you are support</text>
  <text x="212" y="132" class="stat-value">- Thunderwave only if cornered</text>
  <text x="212" y="145" class="stat-value">- Inspire allies &gt; deal damage</text>

  <!-- COMBAT SPELLS (purple) -->
  <rect x="395" y="62" width="185" height="92" rx="4" fill="#ffffff" stroke="#5a3a91" stroke-width="1.5"/>
  <rect x="395" y="62" width="185" height="18" rx="4" fill="#6f42c1"/>
  <text x="487" y="75" text-anchor="middle" class="box-title">COMBAT SPELLS (1st)</text>
  <text x="402" y="93"  class="stat-label">Tasha's</text><text x="455" y="93"  class="stat-value">WIS 13, prone+incap, 30ft</text>
  <text x="402" y="106" class="stat-label">Dissonant</text><text x="462" y="106" class="stat-value">WIS 13, 3d6+flee, 60ft</text>
  <text x="402" y="119" class="stat-label">Thunderwave</text><text x="472" y="119" class="stat-value">CON 13, 2d8+push, 15ft</text>
  <text x="402" y="132" class="stat-label">Cure Wounds</text><text x="472" y="132" class="stat-value">touch, 2d8+3 heal</text>
  <text x="402" y="146" class="key-sub">Spend slots on control + healing; mock for free.</text>

  <!-- SYMBOL KEY -->
  <rect x="400" y="160" width="180" height="104" rx="4" fill="#ffffff" stroke="#555" stroke-width="1.5"/>
  <rect x="400" y="160" width="180" height="18" rx="4" fill="#495057"/>
  <text x="490" y="173" text-anchor="middle" class="box-title">SYMBOL KEY</text>
  <polygon points="412,186 406,196 418,196" fill="#ffd633" stroke="#7a1019" stroke-width="0.8"/>
  <text x="412" y="195" text-anchor="middle" class="bang">!</text>
  <text x="428" y="194" class="stat-label">Survival / support</text>
  <text x="428" y="204" class="key-sub">escape, heal a downed ally</text>
  <polygon points="412,212 419,219 412,226 405,219" fill="#ffffff" stroke="#333333" stroke-width="1.2"/>
  <text x="428" y="220" class="stat-label">Control / utility</text>
  <text x="428" y="230" class="key-sub">Tasha's, Dissonant, Inspire</text>
  <circle cx="412" cy="244" r="6" fill="#ffffff" stroke="#333333" stroke-width="1.2"/>
  <text x="428" y="246" class="stat-label">Attack / damage</text>
  <text x="428" y="256" class="key-sub">Vicious Mockery</text>

  <!-- ===== FLOWCHART ===== -->
  <ellipse cx="297" cy="176" rx="56" ry="17" fill="#2d6a4f" stroke="#13402e" stroke-width="1.5"/>
  <text x="297" y="181" text-anchor="middle" class="node">YOUR TURN</text>
  <line x1="297" y1="193" x2="297" y2="197" stroke="#333" stroke-width="2.5"/>
  <polygon points="297,200 293,194 301,194" fill="#333"/>

  <!-- inline Bardic Inspiration banner -->
  <rect x="208" y="201" width="178" height="30" rx="5" fill="#6f42c1" stroke="#3c2363" stroke-width="1.5"/>
  <polygon points="222,210 228,216 222,222 216,216" fill="#ffffff" stroke="#3c2363" stroke-width="0.8"/>
  <text x="302" y="214" text-anchor="middle" class="act-title">BONUS: BARDIC INSPIRATION</text>
  <text x="297" y="226" text-anchor="middle" class="act-detail">give a d6 before an ally's roll (3/LR)</text>
  <line x1="297" y1="231" x2="297" y2="237" stroke="#333" stroke-width="2.5"/>
  <polygon points="297,242 293,236 301,236" fill="#333"/>

  <!-- D1: foe within 15ft? cy268 -->
  <polygon points="297,242 365,268 297,294 229,268" fill="#f8d7da" stroke="#9e1b27" stroke-width="2"/>
  <text x="297" y="264" text-anchor="middle" class="decision">Foe within</text>
  <text x="297" y="277" text-anchor="middle" class="decision">15 ft of you?</text>
  <!-- BREAK CONTACT box (left) -->
  <rect x="40" y="240" width="142" height="56" rx="4" fill="#b32330" stroke="#6e0f17" stroke-width="1.5"/>
  <polygon points="54,251 49,260 59,260" fill="#ffd633" stroke="#6e0f17" stroke-width="0.8"/>
  <text x="54" y="259" text-anchor="middle" class="bang">!</text>
  <text x="114" y="256" text-anchor="middle" class="act-title">BREAK CONTACT</text>
  <text x="111" y="270" text-anchor="middle" class="act-detail">Disengage 30ft, then mock</text>
  <text x="111" y="282" text-anchor="middle" class="act-detail">Cornered: Thunderwave</text>
  <text x="111" y="292" text-anchor="middle" class="act-note">CON 13, 2d8 + push 10ft</text>
  <!-- D1 YES -> BREAK (chip above) -->
  <line x1="229" y1="268" x2="186" y2="268" stroke="#9e1b27" stroke-width="2.5"/>
  <polygon points="182,268 190,264 190,272" fill="#9e1b27"/>
  <rect x="192" y="252" width="26" height="13" rx="3" fill="#ffffff" stroke="#9e1b27" stroke-width="0.8"/>
  <text x="205" y="261.5" text-anchor="middle" class="chip" fill="#9e1b27">YES</text>
  <!-- D1 NO down (chip right) -->
  <line x1="297" y1="294" x2="297" y2="316" stroke="#1e7e34" stroke-width="2.5"/>
  <polygon points="297,322 292,316 302,316" fill="#1e7e34"/>
  <rect x="303" y="296" width="26" height="13" rx="3" fill="#ffffff" stroke="#1e7e34" stroke-width="0.8"/>
  <text x="316" y="305.5" text-anchor="middle" class="chip" fill="#1e7e34">NO</text>

  <!-- D2: ally down? cy350 -->
  <polygon points="297,324 365,350 297,376 229,350" fill="#d4edda" stroke="#1e7e34" stroke-width="2"/>
  <text x="297" y="346" text-anchor="middle" class="decision">Ally down</text>
  <text x="297" y="359" text-anchor="middle" class="decision">or dying?</text>
  <!-- CURE WOUNDS box (left) -->
  <rect x="40" y="322" width="142" height="56" rx="4" fill="#1e7e34" stroke="#0f3d19" stroke-width="1.5"/>
  <polygon points="54,333 49,342 59,342" fill="#ffd633" stroke="#0f3d19" stroke-width="0.8"/>
  <text x="54" y="341" text-anchor="middle" class="bang">!</text>
  <text x="114" y="338" text-anchor="middle" class="act-title">CURE WOUNDS</text>
  <text x="111" y="353" text-anchor="middle" class="act-detail">1st-level slot, touch</text>
  <text x="111" y="365" text-anchor="middle" class="act-detail">2d8+3 healing</text>
  <text x="111" y="374" text-anchor="middle" class="act-note">stabilise a downed ally</text>
  <!-- D2 YES -> CURE (chip above) -->
  <line x1="229" y1="350" x2="186" y2="350" stroke="#1e7e34" stroke-width="2.5"/>
  <polygon points="182,350 190,346 190,354" fill="#1e7e34"/>
  <rect x="192" y="334" width="26" height="13" rx="3" fill="#ffffff" stroke="#1e7e34" stroke-width="0.8"/>
  <text x="205" y="343.5" text-anchor="middle" class="chip" fill="#1e7e34">YES</text>
  <!-- D2 NO down (chip right) -->
  <line x1="297" y1="376" x2="297" y2="398" stroke="#1e7e34" stroke-width="2.5"/>
  <polygon points="297,404 292,398 302,398" fill="#1e7e34"/>
  <rect x="303" y="378" width="26" height="13" rx="3" fill="#ffffff" stroke="#1e7e34" stroke-width="0.8"/>
  <text x="316" y="387.5" text-anchor="middle" class="chip" fill="#1e7e34">NO</text>

  <!-- D3: disable a key foe? cy430 -->
  <polygon points="297,404 365,430 297,456 229,430" fill="#fff3cd" stroke="#856404" stroke-width="2"/>
  <text x="297" y="426" text-anchor="middle" class="decision">Disable a key</text>
  <text x="297" y="439" text-anchor="middle" class="decision">single foe?</text>
  <!-- D3 NO -> right elbow down to MOCKERY -->
  <line x1="365" y1="430" x2="420" y2="430" stroke="#a04e08" stroke-width="2.5"/>
  <line x1="420" y1="430" x2="420" y2="591" stroke="#a04e08" stroke-width="2.5"/>
  <line x1="420" y1="591" x2="379" y2="591" stroke="#a04e08" stroke-width="2.5"/>
  <polygon points="375,591 383,587 383,595" fill="#a04e08"/>
  <rect x="375" y="424" width="26" height="13" rx="3" fill="#ffffff" stroke="#a04e08" stroke-width="0.8"/>
  <text x="388" y="433.5" text-anchor="middle" class="chip" fill="#a04e08">NO</text>
  <!-- D3 YES down (chip right) -->
  <line x1="297" y1="456" x2="297" y2="478" stroke="#6f42c1" stroke-width="2.5"/>
  <polygon points="297,484 292,478 302,478" fill="#6f42c1"/>
  <rect x="303" y="458" width="26" height="13" rx="3" fill="#ffffff" stroke="#5a3a91" stroke-width="0.8"/>
  <text x="316" y="467.5" text-anchor="middle" class="chip" fill="#5a3a91">YES</text>

  <!-- D3b: spend a slot? cy508 -->
  <polygon points="297,484 363,508 297,532 231,508" fill="#e2d4f0" stroke="#5a3a91" stroke-width="2"/>
  <text x="297" y="506" text-anchor="middle" class="decision-sm">Spend a slot</text>
  <text x="297" y="518" text-anchor="middle" class="decision-sm">on it?</text>
  <!-- DISABLE SPELL box (left) -->
  <rect x="40" y="480" width="142" height="56" rx="4" fill="#6f42c1" stroke="#3c2363" stroke-width="1.5"/>
  <polygon points="54,491 60,497 54,503 48,497" fill="#ffffff" stroke="#3c2363" stroke-width="0.8"/>
  <text x="116" y="496" text-anchor="middle" class="act-title">DISABLE (slot)</text>
  <text x="111" y="510" text-anchor="middle" class="act-detail">Tasha's: prone+incap (WIS13)</text>
  <text x="111" y="522" text-anchor="middle" class="act-detail">Dissonant: 3d6+flee (WIS13)</text>
  <text x="111" y="532" text-anchor="middle" class="act-note">30 / 60 ft</text>
  <!-- D3b YES -> DISABLE (chip above) -->
  <line x1="231" y1="508" x2="186" y2="508" stroke="#6f42c1" stroke-width="2.5"/>
  <polygon points="182,508 190,504 190,512" fill="#6f42c1"/>
  <rect x="192" y="492" width="26" height="13" rx="3" fill="#ffffff" stroke="#5a3a91" stroke-width="0.8"/>
  <text x="205" y="501.5" text-anchor="middle" class="chip" fill="#5a3a91">YES</text>
  <!-- D3b NO down (chip right) -->
  <line x1="297" y1="532" x2="297" y2="560" stroke="#a04e08" stroke-width="2.5"/>
  <polygon points="297,566 292,560 302,560" fill="#a04e08"/>
  <rect x="303" y="538" width="26" height="13" rx="3" fill="#ffffff" stroke="#a04e08" stroke-width="0.8"/>
  <text x="316" y="547.5" text-anchor="middle" class="chip" fill="#a04e08">NO</text>

  <!-- VICIOUS MOCKERY box (default) -->
  <rect x="225" y="566" width="150" height="50" rx="4" fill="#d9690a" stroke="#8a4205" stroke-width="1.5"/>
  <circle cx="236" cy="580" r="4.5" fill="#ffffff" stroke="#8a4205" stroke-width="0.8"/>
  <text x="308" y="583" text-anchor="middle" class="act-title">VICIOUS MOCKERY</text>
  <text x="300" y="598" text-anchor="middle" class="act-detail">Cantrip, WIS 13, 1d6</text>
  <text x="300" y="610" text-anchor="middle" class="act-detail">+ disadv on its next attack</text>

  <!-- ===== BOTTOM UTILITY ROW ===== -->
  <rect x="15" y="700" width="135" height="100" rx="4" fill="#343a40" stroke="#15181c" stroke-width="1.5"/>
  <text x="82" y="716" text-anchor="middle" class="box-title">REACTION</text>
  <line x1="25" y1="722" x2="140" y2="722" stroke="#666" stroke-width="1.2"/>
  <text x="22" y="736" class="act-title">Opportunity Attack</text>
  <text x="22" y="750" class="act-detail">Dagger +2, 1d4 only</text>
  <text x="22" y="762" class="act-detail">if a foe leaves reach.</text>
  <text x="22" y="778" class="act-detail">You have no Shield -</text>
  <text x="22" y="790" class="act-note">just don't get hit.</text>

  <rect x="160" y="700" width="135" height="100" rx="4" fill="#6f42c1" stroke="#3c2363" stroke-width="1.5"/>
  <text x="227" y="716" text-anchor="middle" class="box-title">BONUS ACTION</text>
  <line x1="170" y1="722" x2="285" y2="722" stroke="#b59ad6" stroke-width="1.2"/>
  <text x="227" y="740" text-anchor="middle" class="act-title">BARDIC INSPIRATION</text>
  <text x="227" y="755" text-anchor="middle" class="act-detail">3 / long rest, d6, 60ft</text>
  <text x="227" y="769" text-anchor="middle" class="act-detail">Ally adds d6 to a failed</text>
  <text x="227" y="781" text-anchor="middle" class="act-detail">attack, check or save.</text>
  <text x="227" y="793" text-anchor="middle" class="act-note">Give it BEFORE they roll.</text>

  <rect x="305" y="700" width="135" height="100" rx="4" fill="#138496" stroke="#0a4a52" stroke-width="1.5"/>
  <text x="372" y="716" text-anchor="middle" class="box-title">MOVEMENT</text>
  <line x1="315" y1="722" x2="430" y2="722" stroke="#0d6473" stroke-width="1.2"/>
  <text x="312" y="736" class="act-detail">Speed: 30 ft</text>
  <text x="312" y="750" class="act-detail">AC 10 - stay 60ft+ back</text>
  <text x="312" y="762" class="act-detail">Kite: move, then cast.</text>
  <text x="312" y="776" class="act-detail">Use allies as a wall.</text>
  <text x="312" y="790" class="act-detail">Keep line of sight.</text>

  <rect x="450" y="700" width="130" height="100" rx="4" fill="#ffffff" stroke="#117a5f" stroke-width="1.5"/>
  <rect x="450" y="700" width="130" height="18" rx="4" fill="#20a07a"/>
  <text x="515" y="713" text-anchor="middle" class="box-title">UTILITY</text>
  <text x="455" y="731" class="stat-label">Mage Hand</text><text x="520" y="731" class="stat-value">30ft</text>
  <text x="455" y="745" class="stat-label">Darkvision</text><text x="520" y="745" class="stat-value">60ft</text>
  <text x="455" y="759" class="stat-label">Adv save</text><text x="520" y="759" class="stat-value">vs Charmed</text>
  <text x="455" y="773" class="stat-label">Immune</text><text x="520" y="773" class="stat-value">magic sleep</text>
  <text x="455" y="790" class="key-sub">Skills: Persuasion +7, History +5</text>

  <!-- FOOTER -->
  <rect x="15" y="801" width="565" height="21" rx="4" fill="#fff3cd" stroke="#856404" stroke-width="1.5"/>
  <polygon points="27,805 21,814 33,814" fill="#d9690a" stroke="#5a4500" stroke-width="0.8"/>
  <text x="27" y="813" text-anchor="middle" class="bang" fill="#ffffff">!</text>
  <text x="302" y="811" text-anchor="middle" class="foot" fill="#5a4500">Vicious Mockery imposes DISADVANTAGE on its next attack. Fragile (HP 13, AC 10) - stay back, buff, control.</text>
  <text x="302" y="819" text-anchor="middle" class="stat-value" fill="#5a4500" style="font-size:8px">Synced: 2026-06-01  -  Lv2  -  regenerate from D&amp;D Beyond after level-ups</text>
</svg>
